<svg id="Layer_1" data-name="Layer 1" xmlns="http://www.w3.org/2000/svg" viewBox="0 0 360 517.04"><defs><style>.cls-1{fill:#ed1c24;}.cls-2{fill:#f15a24;}.cls-3{fill:#ff9e00;}.cls-4{fill:#2e2c2d;}.cls-5{fill:#2cff1f;}.cls-6{fill:#c94922;}.cls-7{fill:#da5125;}.cls-8{fill:#b4411e;}.cls-9{fill:#949599;}.cls-10{fill:#c7c8ca;}.cls-11{fill:#fefafe;}</style></defs><title>logo</title><path class="cls-1" d="M230,339.85" transform="translate(-50 -50)"/><path class="cls-2" d="M230,175.85v0Z" transform="translate(-50 -50)"/><path class="cls-3" d="M230,216.85" transform="translate(-50 -50)"/><path class="cls-4" d="M74.47,506.93H99.09a17.85,17.85,0,0,1,17.83,17.66V548.7a17.84,17.84,0,0,1-17.83,17.66H74.47Zm24.62,47.55a6,6,0,0,0,5.94-6V524.76a6,6,0,0,0-5.94-5.94H86.35v35.66Z" transform="translate(-50 -50)"/><path class="cls-4" d="M128.25,506.93h39v11.89H140.13V530.7H159.4v11.89H140.13v11.89h27.09v11.88H128.16Z" transform="translate(-50 -50)"/><path class="cls-4" d="M174.13,506.93h12.49L199.38,546l12.77-39.05h12.48l-21,59.43h-8.41Z" transform="translate(-50 -50)"/><path class="cls-4" d="M232.45,506.93h22c14.68,0,24.07,17.78,11.48,27.93,15.18,9.75,8.26,31.5-8.43,31.5h-25Zm22,24.64c7.3,0,8.66-12.75,0-12.75h-10v12.75Zm3.05,22.91c7.3,0,8.24-12.76,0-12.76H244.42v12.76Z" transform="translate(-50 -50)"/><path class="cls-4" d="M282.08,549.21l.09-24.87a17.68,17.68,0,0,1,17.74-17.75H311a17.74,17.74,0,0,1,17.74,17.49v25.3A17.71,17.71,0,0,1,311,567H299.91A17.77,17.77,0,0,1,282.08,549.21ZM311,555.15a5.85,5.85,0,0,0,5.94-5.94v-24.7a6,6,0,0,0-5.94-6H299.91a5.85,5.85,0,0,0-5.94,5.94v24.79a5.79,5.79,0,0,0,5.94,5.94Z" transform="translate(-50 -50)"/><path class="cls-4" d="M351.78,536.65,333.1,506.93h14.09l12.31,20,12.06-20h14.18L367,536.65l18.77,29.71H371.56l-12.06-20-12.31,20H333.1Z" transform="translate(-50 -50)"/><path class="cls-5" d="M682.89,395.88" transform="translate(-50 -50)"/><path class="cls-6" d="M230.11,50.25,50.32,154.05v207.6h0l-.21.12,180,103.92v-.24l179.78-103.8V154.05Zm73.78,250.12v.08l-73.78,42.6-73.79-42.6v-85.2l73.79-42.6,73.78,42.6v85.12Z" transform="translate(-50 -50)"/><polygon class="cls-7" points="180 0 0 103.92 106.2 165.24 180 122.63 253.8 165.24 360 103.92 180 0"/><polygon class="cls-8" points="180.03 207.66 180.14 415.25 359.93 311.38 359.93 103.92 180.03 207.66"/><polyline class="cls-9" points="270 155.89 180 207.85 180 311.75 269.98 259.8"/><polyline class="cls-10" points="180 207.85 90 155.89 90.02 259.8 180 311.75"/><polyline class="cls-11" points="180 207.85 269.98 155.98 180 103.92 90.02 155.98"/></svg>